<svg xmlns="http://www.w3.org/2000/svg" width="375" viewBox="0 0 375 150" height="150" version="1.0"><defs><clipPath id="a"><path d="M 129 18 L 372 18 L 372 116 L 129 116 Z M 129 18"/></clipPath><clipPath id="b"><path d="M 109.5 3.789062 L 385.628906 31.332031 L 374.164062 146.261719 L 98.035156 118.71875 Z M 109.5 3.789062"/></clipPath><clipPath id="c"><path d="M 109.5 3.789062 L 385.628906 31.332031 L 374.164062 146.261719 L 98.035156 118.71875 Z M 109.5 3.789062"/></clipPath></defs><g clip-path="url(#a)"><g clip-path="url(#b)"><g clip-path="url(#c)"><path fill="#E27D60" d="M 362.191406 62.578125 C 355.945312 57.84375 344.667969 51.890625 340.722656 50.183594 C 336.957031 48.550781 336.050781 38.265625 299.601562 26.867188 C 297.425781 26.183594 298.542969 24.613281 296.078125 25.09375 C 293.613281 25.574219 292.828125 24.464844 291.421875 23.976562 C 283.132812 21.109375 260.832031 19.613281 252.089844 19.015625 C 192.5 14.953125 104.113281 57.753906 136.863281 93.855469 C 148.902344 107.109375 172.308594 112.894531 190.753906 114.839844 C 210.886719 116.964844 248.835938 114.953125 263.027344 113.003906 C 290.410156 109.25 272.578125 113.15625 317.535156 106.761719 C 335.335938 104.21875 379.539062 92.277344 370.050781 72.816406 C 367.8125 68.222656 363.152344 63.304688 362.191406 62.578125 Z M 337.296875 50.929688 C 337.71875 51.4375 340.832031 56.09375 340.453125 56.628906 C 340.097656 57.132812 338.621094 56.074219 338.148438 55.683594 C 330.652344 49.519531 321.199219 46.023438 315.328125 43.707031 C 314.695312 43.457031 313.839844 43.707031 313.210938 42.730469 C 318.253906 43.839844 334.019531 46.972656 337.296875 50.929688 Z M 284.429688 27.175781 C 289.054688 28.097656 289.890625 29.910156 295.285156 28.300781 C 300.078125 26.867188 332.664062 42.503906 331.574219 44.84375 C 331.390625 45.230469 330.90625 45.25 330.582031 45.125 C 329.691406 44.773438 245.378906 24.050781 194.746094 32.710938 C 194.71875 32.589844 194.691406 32.46875 194.664062 32.347656 C 220.285156 24.417969 255.605469 21.453125 284.429688 27.175781 Z M 187.421875 31.835938 C 187.160156 32.828125 187.519531 32.59375 178.632812 35.757812 C 167.285156 39.792969 168.171875 39.753906 167.667969 39.507812 C 170.519531 37.28125 182.660156 32.886719 187.421875 31.835938 Z M 164.972656 43.550781 C 210.507812 21.75 278.191406 36.117188 279.066406 36.550781 C 276.417969 38.800781 269.789062 36.90625 267.28125 38 C 277.882812 39.828125 300.335938 35.058594 334.371094 55.460938 C 334.371094 55.460938 342.074219 61.980469 342.078125 61.980469 C 342.914062 62.828125 343.320312 63.773438 343.472656 64.910156 C 351.058594 122.480469 109.863281 119.859375 140.992188 64.761719 C 145.386719 56.992188 151.425781 50.035156 164.972656 43.550781 Z M 140.597656 60.894531 C 138.148438 67.371094 135.589844 68.003906 136.789062 79.648438 C 132.769531 74.046875 136.625 61.835938 140.597656 60.894531 Z M 163.179688 107.175781 C 140.183594 99.109375 129.917969 84.488281 133.339844 78.246094 C 134.820312 80.6875 134.4375 85.496094 145.5625 92.09375 C 166.113281 104.28125 181.71875 106.902344 215.484375 110.171875 C 231.679688 111.738281 231.941406 110.226562 240.136719 111.246094 C 243.265625 111.636719 256.269531 111.78125 258.335938 111.554688 C 258.796875 111.503906 259.269531 111.566406 259.679688 111.832031 C 259.566406 112.714844 195.238281 118.414062 163.179688 107.175781 Z M 263.855469 110.847656 C 261.8125 110.226562 250.273438 111.058594 248.820312 109.414062 C 281.785156 107.351562 343.90625 99.640625 345.941406 66.757812 C 349.269531 70.894531 350.046875 75.289062 348.796875 80.066406 C 344.824219 95.203125 305.648438 104.671875 289.121094 107.292969 C 263.554688 111.347656 265.265625 111.277344 263.855469 110.847656 Z M 287.210938 109.371094 C 287.058594 108.574219 287.882812 108.746094 288.339844 108.664062 C 303.328125 105.917969 331.660156 99.648438 342.980469 89.480469 C 358.875 75.199219 346.472656 68.003906 344.660156 60.167969 C 344.351562 58.832031 341.890625 53.09375 341.371094 52.308594 C 341.28125 52.167969 341.296875 52.011719 341.421875 51.859375 C 342.320312 51.4375 367.171875 63.632812 369.730469 76.039062 C 374.964844 101.457031 287.660156 111.71875 287.210938 109.371094"/></g></g></g><g fill="#85DCB8"><g><g><path d="M 16.734375 -29.703125 C 18.921875 -29.703125 21.070312 -29.25 23.1875 -28.34375 C 25.3125 -27.445312 27.117188 -26.242188 28.609375 -24.734375 L 24.265625 -19.59375 C 23.316406 -20.78125 22.175781 -21.710938 20.84375 -22.390625 C 19.507812 -23.078125 18.179688 -23.421875 16.859375 -23.421875 C 14.535156 -23.421875 12.585938 -22.597656 11.015625 -20.953125 C 9.453125 -19.316406 8.671875 -17.296875 8.671875 -14.890625 C 8.671875 -12.421875 9.453125 -10.359375 11.015625 -8.703125 C 12.585938 -7.046875 14.535156 -6.21875 16.859375 -6.21875 C 18.097656 -6.21875 19.382812 -6.523438 20.71875 -7.140625 C 22.050781 -7.765625 23.234375 -8.609375 24.265625 -9.671875 L 28.640625 -5.046875 C 27.046875 -3.421875 25.160156 -2.113281 22.984375 -1.125 C 20.816406 -0.144531 18.648438 0.34375 16.484375 0.34375 C 12.054688 0.34375 8.367188 -1.097656 5.421875 -3.984375 C 2.484375 -6.878906 1.015625 -10.488281 1.015625 -14.8125 C 1.015625 -19.039062 2.515625 -22.578125 5.515625 -25.421875 C 8.515625 -28.273438 12.253906 -29.703125 16.734375 -29.703125 Z M 16.734375 -29.703125" transform="translate(10.54 83.51)"/></g></g></g><g fill="#85DCB8"><g><g><path d="M 3.796875 -31.9375 C 4.515625 -32.65625 5.4375 -33.015625 6.5625 -33.015625 C 7.6875 -33.015625 8.601562 -32.65625 9.3125 -31.9375 C 10.03125 -31.226562 10.390625 -30.3125 10.390625 -29.1875 C 10.390625 -28.070312 10.03125 -27.148438 9.3125 -26.421875 C 8.601562 -25.691406 7.6875 -25.328125 6.5625 -25.328125 C 5.4375 -25.328125 4.515625 -25.691406 3.796875 -26.421875 C 3.085938 -27.148438 2.734375 -28.070312 2.734375 -29.1875 C 2.734375 -30.3125 3.085938 -31.226562 3.796875 -31.9375 Z M 10.140625 0 L 2.90625 0 L 2.90625 -22.671875 L 10.140625 -22.671875 Z M 10.140625 0" transform="translate(39.645 83.51)"/></g></g></g><g fill="#85DCB8"><g><g><path d="M 10.171875 -22.671875 L 10.171875 -18.84375 C 11.773438 -21.5625 14.234375 -22.953125 17.546875 -23.015625 L 17.546875 -16.453125 C 15.460938 -16.640625 13.757812 -16.289062 12.4375 -15.40625 C 11.125 -14.53125 10.367188 -13.28125 10.171875 -11.65625 L 10.171875 0 L 2.90625 0 L 2.90625 -22.671875 Z M 10.171875 -22.671875" transform="translate(52.726 83.51)"/></g></g></g><g fill="#85DCB8"><g><g><path d="M 12.78125 -22.921875 C 15.03125 -22.921875 17.03125 -22.476562 18.78125 -21.59375 C 20.53125 -20.71875 21.894531 -19.460938 22.875 -17.828125 L 17.671875 -14.6875 C 16.546875 -16.25 15.015625 -17.03125 13.078125 -17.03125 C 11.679688 -17.03125 10.539062 -16.503906 9.65625 -15.453125 C 8.769531 -14.398438 8.328125 -13.019531 8.328125 -11.3125 C 8.328125 -9.570312 8.757812 -8.175781 9.625 -7.125 C 10.5 -6.070312 11.648438 -5.546875 13.078125 -5.546875 C 15.210938 -5.546875 16.753906 -6.40625 17.703125 -8.125 L 23.015625 -5 C 22.085938 -3.320312 20.734375 -2.023438 18.953125 -1.109375 C 17.171875 -0.203125 15.085938 0.25 12.703125 0.25 C 9.191406 0.25 6.363281 -0.804688 4.21875 -2.921875 C 2.082031 -5.035156 1.015625 -7.816406 1.015625 -11.265625 C 1.015625 -14.742188 2.097656 -17.554688 4.265625 -19.703125 C 6.441406 -21.847656 9.28125 -22.921875 12.78125 -22.921875 Z M 12.78125 -22.921875" transform="translate(70.685 83.51)"/></g></g></g><g fill="#85DCB8"><g><g><path d="M 10.390625 0 L 3.109375 0 L 3.109375 -31.203125 L 10.390625 -31.203125 Z M 10.390625 0" transform="translate(94.323 83.51)"/></g></g></g><g fill="#85DCB8"><g><g><path d="M 12.828125 -22.921875 C 16.753906 -22.921875 19.707031 -21.710938 21.6875 -19.296875 C 23.664062 -16.890625 24.523438 -13.582031 24.265625 -9.375 L 8.328125 -9.375 C 8.691406 -8.03125 9.335938 -6.992188 10.265625 -6.265625 C 11.191406 -5.535156 12.328125 -5.171875 13.671875 -5.171875 C 15.742188 -5.171875 17.550781 -5.941406 19.09375 -7.484375 L 22.921875 -3.75 C 20.484375 -1.082031 17.191406 0.25 13.046875 0.25 C 9.367188 0.25 6.441406 -0.800781 4.265625 -2.90625 C 2.097656 -5.007812 1.015625 -7.796875 1.015625 -11.265625 C 1.015625 -14.773438 2.097656 -17.59375 4.265625 -19.71875 C 6.441406 -21.851562 9.296875 -22.921875 12.828125 -22.921875 Z M 8.203125 -13.296875 L 17.28125 -13.296875 C 17.28125 -14.671875 16.878906 -15.773438 16.078125 -16.609375 C 15.285156 -17.453125 14.226562 -17.875 12.90625 -17.875 C 11.675781 -17.875 10.640625 -17.457031 9.796875 -16.625 C 8.953125 -15.800781 8.421875 -14.691406 8.203125 -13.296875 Z M 8.203125 -13.296875" transform="translate(107.824 83.51)"/></g></g></g><g fill="#85DCB8"><g><g><path d="M 14.265625 -29.78125 C 18.660156 -29.78125 22.53125 -28.6875 25.875 -26.5 L 23.046875 -20.65625 C 21.503906 -21.550781 19.847656 -22.285156 18.078125 -22.859375 C 16.316406 -23.429688 14.832031 -23.71875 13.625 -23.71875 C 11.46875 -23.71875 10.390625 -23.003906 10.390625 -21.578125 C 10.390625 -20.648438 10.921875 -19.90625 11.984375 -19.34375 C 13.054688 -18.78125 14.351562 -18.296875 15.875 -17.890625 C 17.40625 -17.484375 18.929688 -16.992188 20.453125 -16.421875 C 21.984375 -15.847656 23.28125 -14.914062 24.34375 -13.625 C 25.414062 -12.332031 25.953125 -10.707031 25.953125 -8.75 C 25.953125 -5.914062 24.84375 -3.707031 22.625 -2.125 C 20.414062 -0.539062 17.597656 0.25 14.171875 0.25 C 11.734375 0.25 9.320312 -0.164062 6.9375 -1 C 4.550781 -1.84375 2.476562 -2.992188 0.71875 -4.453125 L 3.625 -10.21875 C 5.101562 -8.925781 6.851562 -7.863281 8.875 -7.03125 C 10.894531 -6.207031 12.691406 -5.796875 14.265625 -5.796875 C 15.460938 -5.796875 16.398438 -6.015625 17.078125 -6.453125 C 17.753906 -6.890625 18.09375 -7.53125 18.09375 -8.375 C 18.09375 -9.1875 17.707031 -9.863281 16.9375 -10.40625 C 16.164062 -10.957031 15.203125 -11.363281 14.046875 -11.625 C 12.898438 -11.894531 11.648438 -12.253906 10.296875 -12.703125 C 8.953125 -13.148438 7.707031 -13.640625 6.5625 -14.171875 C 5.414062 -14.703125 4.457031 -15.550781 3.6875 -16.71875 C 2.914062 -17.882812 2.53125 -19.28125 2.53125 -20.90625 C 2.53125 -23.59375 3.597656 -25.742188 5.734375 -27.359375 C 7.878906 -28.972656 10.722656 -29.78125 14.265625 -29.78125 Z M 14.265625 -29.78125" transform="translate(142.902 83.51)"/></g></g></g><g fill="#85DCB8"><g><g><path d="M 16.109375 -6.265625 L 17.546875 -1.21875 C 15.773438 -0.175781 13.753906 0.34375 11.484375 0.34375 C 9.242188 0.34375 7.425781 -0.28125 6.03125 -1.53125 C 4.644531 -2.78125 3.953125 -4.554688 3.953125 -6.859375 L 3.953125 -16.859375 L 0.796875 -16.859375 L 0.796875 -21.625 L 3.953125 -21.625 L 3.953125 -27.921875 L 11.1875 -27.921875 L 11.1875 -21.65625 L 17.125 -21.65625 L 17.125 -16.859375 L 11.1875 -16.859375 L 11.1875 -7.984375 C 11.1875 -7.117188 11.359375 -6.484375 11.703125 -6.078125 C 12.054688 -5.671875 12.585938 -5.484375 13.296875 -5.515625 C 13.960938 -5.515625 14.898438 -5.765625 16.109375 -6.265625 Z M 16.109375 -6.265625" transform="translate(169.988 83.51)"/></g></g></g><g fill="#85DCB8"><g><g><path d="M 24.984375 -22.671875 L 24.984375 0 L 17.703125 0 L 17.703125 -3.75 C 16.160156 -1.050781 13.707031 0.296875 10.34375 0.296875 C 7.875 0.296875 5.90625 -0.488281 4.4375 -2.0625 C 2.96875 -3.632812 2.234375 -5.738281 2.234375 -8.375 L 2.234375 -22.671875 L 9.5 -22.671875 L 9.5 -10.4375 C 9.5 -9.082031 9.84375 -8.019531 10.53125 -7.25 C 11.21875 -6.476562 12.140625 -6.09375 13.296875 -6.09375 C 14.671875 -6.125 15.75 -6.632812 16.53125 -7.625 C 17.3125 -8.625 17.703125 -9.910156 17.703125 -11.484375 L 17.703125 -22.671875 Z M 24.984375 -22.671875" transform="translate(188.284 83.51)"/></g></g></g><g fill="#85DCB8"><g><g><path d="M 25.75 -31.203125 L 25.75 0 L 18.46875 0 L 18.46875 -2.984375 C 16.8125 -0.796875 14.539062 0.296875 11.65625 0.296875 C 8.457031 0.296875 5.890625 -0.78125 3.953125 -2.9375 C 2.015625 -5.101562 1.046875 -7.9375 1.046875 -11.4375 C 1.046875 -14.914062 2 -17.707031 3.90625 -19.8125 C 5.8125 -21.914062 8.335938 -22.96875 11.484375 -22.96875 C 14.484375 -22.96875 16.8125 -21.875 18.46875 -19.6875 L 18.46875 -31.203125 Z M 9.75 -6.984375 C 10.675781 -5.890625 11.894531 -5.34375 13.40625 -5.34375 C 14.925781 -5.34375 16.148438 -5.890625 17.078125 -6.984375 C 18.003906 -8.078125 18.46875 -9.503906 18.46875 -11.265625 C 18.46875 -13.003906 18.003906 -14.421875 17.078125 -15.515625 C 16.148438 -16.609375 14.925781 -17.15625 13.40625 -17.15625 C 11.894531 -17.15625 10.675781 -16.613281 9.75 -15.53125 C 8.832031 -14.457031 8.359375 -13.035156 8.328125 -11.265625 C 8.359375 -9.503906 8.832031 -8.078125 9.75 -6.984375 Z M 9.75 -6.984375" transform="translate(216.17 83.51)"/></g></g></g><g fill="#85DCB8"><g><g><path d="M 12.828125 -22.921875 C 16.753906 -22.921875 19.707031 -21.710938 21.6875 -19.296875 C 23.664062 -16.890625 24.523438 -13.582031 24.265625 -9.375 L 8.328125 -9.375 C 8.691406 -8.03125 9.335938 -6.992188 10.265625 -6.265625 C 11.191406 -5.535156 12.328125 -5.171875 13.671875 -5.171875 C 15.742188 -5.171875 17.550781 -5.941406 19.09375 -7.484375 L 22.921875 -3.75 C 20.484375 -1.082031 17.191406 0.25 13.046875 0.25 C 9.367188 0.25 6.441406 -0.800781 4.265625 -2.90625 C 2.097656 -5.007812 1.015625 -7.796875 1.015625 -11.265625 C 1.015625 -14.773438 2.097656 -17.59375 4.265625 -19.71875 C 6.441406 -21.851562 9.296875 -22.921875 12.828125 -22.921875 Z M 8.203125 -13.296875 L 17.28125 -13.296875 C 17.28125 -14.671875 16.878906 -15.773438 16.078125 -16.609375 C 15.285156 -17.453125 14.226562 -17.875 12.90625 -17.875 C 11.675781 -17.875 10.640625 -17.457031 9.796875 -16.625 C 8.953125 -15.800781 8.421875 -14.691406 8.203125 -13.296875 Z M 8.203125 -13.296875" transform="translate(245.023 83.51)"/></g></g></g><g fill="#85DCB8"><g><g><path d="M 17.75 -23.015625 C 20.25 -23.015625 22.253906 -22.21875 23.765625 -20.625 C 25.273438 -19.039062 26.03125 -16.929688 26.03125 -14.296875 L 26.03125 0 L 18.796875 0 L 18.796875 -12.28125 C 18.796875 -13.601562 18.4375 -14.648438 17.71875 -15.421875 C 17.007812 -16.191406 16.039062 -16.578125 14.8125 -16.578125 C 13.519531 -16.578125 12.457031 -16.15625 11.625 -15.3125 C 10.800781 -14.46875 10.316406 -13.359375 10.171875 -11.984375 L 10.171875 0 L 2.90625 0 L 2.90625 -22.671875 L 10.171875 -22.671875 L 10.171875 -18.96875 C 11.773438 -21.601562 14.300781 -22.953125 17.75 -23.015625 Z M 17.75 -23.015625" transform="translate(270.343 83.51)"/></g></g></g><g fill="#85DCB8"><g><g><path d="M 16.109375 -6.265625 L 17.546875 -1.21875 C 15.773438 -0.175781 13.753906 0.34375 11.484375 0.34375 C 9.242188 0.34375 7.425781 -0.28125 6.03125 -1.53125 C 4.644531 -2.78125 3.953125 -4.554688 3.953125 -6.859375 L 3.953125 -16.859375 L 0.796875 -16.859375 L 0.796875 -21.625 L 3.953125 -21.625 L 3.953125 -27.921875 L 11.1875 -27.921875 L 11.1875 -21.65625 L 17.125 -21.65625 L 17.125 -16.859375 L 11.1875 -16.859375 L 11.1875 -7.984375 C 11.1875 -7.117188 11.359375 -6.484375 11.703125 -6.078125 C 12.054688 -5.671875 12.585938 -5.484375 13.296875 -5.515625 C 13.960938 -5.515625 14.898438 -5.765625 16.109375 -6.265625 Z M 16.109375 -6.265625" transform="translate(298.649 83.51)"/></g></g></g><g fill="#85DCB8"><g><g><path d="M 11.015625 -23.015625 C 14.359375 -23.015625 17.472656 -22.15625 20.359375 -20.4375 L 17.875 -15.734375 C 15.070312 -17.242188 12.6875 -18 10.71875 -18 C 9.238281 -18 8.5 -17.484375 8.5 -16.453125 C 8.5 -15.890625 8.90625 -15.414062 9.71875 -15.03125 C 10.53125 -14.65625 11.523438 -14.3125 12.703125 -14 C 13.878906 -13.695312 15.046875 -13.3125 16.203125 -12.84375 C 17.367188 -12.382812 18.359375 -11.648438 19.171875 -10.640625 C 19.992188 -9.628906 20.40625 -8.394531 20.40625 -6.9375 C 20.40625 -4.664062 19.519531 -2.890625 17.75 -1.609375 C 15.976562 -0.335938 13.679688 0.296875 10.859375 0.296875 C 6.847656 0.296875 3.453125 -0.769531 0.671875 -2.90625 L 2.984375 -7.53125 C 5.648438 -5.65625 8.328125 -4.71875 11.015625 -4.71875 C 12.671875 -4.71875 13.5 -5.234375 13.5 -6.265625 C 13.5 -6.859375 13.097656 -7.347656 12.296875 -7.734375 C 11.503906 -8.128906 10.53125 -8.476562 9.375 -8.78125 C 8.226562 -9.09375 7.078125 -9.476562 5.921875 -9.9375 C 4.773438 -10.40625 3.800781 -11.128906 3 -12.109375 C 2.207031 -13.097656 1.8125 -14.332031 1.8125 -15.8125 C 1.8125 -18.082031 2.664062 -19.847656 4.375 -21.109375 C 6.082031 -22.378906 8.296875 -23.015625 11.015625 -23.015625 Z M 11.015625 -23.015625" transform="translate(316.945 83.51)"/></g></g></g></svg>