<svg xmlns="http://www.w3.org/2000/svg" width="32" viewBox="0 0 32 32" height="32" version="1.0"><defs><clipPath id="a"><path d="M 0.484375 0 L 29.515625 0 L 29.515625 29.03125 L 0.484375 29.03125 Z M 0.484375 0"/></clipPath><clipPath id="b"><path d="M 2.414062 4.761719 L 27.816406 4.761719 L 27.816406 24.359375 L 2.414062 24.359375 Z M 2.414062 4.761719"/></clipPath></defs><g clip-path="url(#a)"><path fill="#FFF" d="M 0.484375 0 L 29.515625 0 L 29.515625 36.289062 L 0.484375 36.289062 Z M 0.484375 0"/><path fill="#FFF" d="M 0.484375 0 L 29.515625 0 L 29.515625 29.03125 L 0.484375 29.03125 Z M 0.484375 0"/><path fill="#E8A87C" d="M 0.484375 0 L 29.515625 0 L 29.515625 29.03125 L 0.484375 29.03125 Z M 0.484375 0"/></g><g clip-path="url(#b)"><path fill="#E27D60" d="M 11.898438 9.242188 C 11.9375 9.222656 11.949219 8.9375 11.960938 8.894531 C 11.964844 8.847656 11.988281 8.5625 12.027344 8.546875 C 12.640625 8.242188 13.269531 7.972656 13.910156 7.738281 C 16.386719 6.832031 19.160156 6.433594 21.734375 7.164062 C 23.847656 7.765625 25.804688 9.117188 26.910156 11.03125 C 27.5 12.042969 27.804688 13.191406 27.808594 14.355469 C 27.8125 14.917969 27.734375 15.464844 27.640625 16.011719 C 27.539062 16.578125 27.417969 17.132812 27.226562 17.679688 C 26.410156 19.996094 24.605469 21.78125 22.417969 22.859375 C 19.984375 24.054688 17.234375 24.359375 14.554688 24.144531 C 13.125 24.027344 11.707031 23.78125 10.316406 23.4375 C 9.246094 23.179688 8.191406 22.84375 7.1875 22.386719 C 5.242188 21.507812 3.429688 20.082031 2.792969 17.96875 C 2.414062 16.722656 2.539062 15.476562 2.789062 14.226562 C 3.03125 13.007812 3.554688 11.878906 4.289062 10.878906 C 5.789062 8.847656 8.023438 7.359375 10.316406 6.351562 C 12.742188 5.285156 15.398438 4.761719 18.050781 4.816406 C 18.015625 4.816406 17.964844 5.519531 17.921875 5.519531 C 17.296875 5.503906 16.664062 5.519531 16.039062 5.570312 C 13.53125 5.773438 11.074219 6.5 8.867188 7.691406 C 6.753906 8.835938 4.726562 10.417969 3.539062 12.542969 C 3.238281 13.082031 2.996094 13.648438 2.828125 14.238281 C 2.792969 14.359375 2.765625 14.488281 2.730469 14.617188 C 2.65625 14.894531 2.765625 14.347656 2.742188 14.539062 C 2.726562 14.707031 2.699219 14.878906 2.6875 15.046875 C 2.664062 15.335938 2.664062 15.636719 2.6875 15.925781 C 2.757812 17.054688 3.15625 18.132812 3.832031 19.042969 C 5.070312 20.714844 7.058594 21.691406 8.996094 22.320312 C 10.144531 22.691406 11.328125 22.949219 12.511719 23.15625 C 13.921875 23.398438 15.355469 23.539062 16.789062 23.492188 C 19.230469 23.425781 21.683594 22.820312 23.742188 21.472656 C 24.722656 20.828125 25.597656 20.019531 26.28125 19.066406 C 26.617188 18.582031 26.910156 18.070312 27.144531 17.53125 C 27.261719 17.257812 27.367188 16.976562 27.457031 16.691406 C 27.503906 16.550781 27.542969 16.410156 27.578125 16.269531 C 27.59375 16.195312 27.609375 16.125 27.628906 16.050781 C 27.691406 15.792969 27.59375 16.332031 27.621094 16.066406 C 27.742188 14.917969 27.671875 13.792969 27.257812 12.699219 C 26.882812 11.722656 26.28125 10.839844 25.535156 10.109375 C 23.9375 8.535156 21.769531 7.652344 19.535156 7.5 C 16.890625 7.328125 14.253906 8.085938 11.898438 9.242188 Z M 11.898438 9.242188"/></g><g fill="#85DCB8"><g><g><path d="M 5.453125 -9.53125 C 6.117188 -9.53125 6.769531 -9.398438 7.40625 -9.140625 C 8.039062 -8.878906 8.585938 -8.519531 9.046875 -8.0625 L 8.109375 -6.890625 C 7.765625 -7.265625 7.359375 -7.554688 6.890625 -7.765625 C 6.421875 -7.984375 5.945312 -8.09375 5.46875 -8.09375 C 4.519531 -8.09375 3.71875 -7.769531 3.0625 -7.125 C 2.414062 -6.476562 2.09375 -5.691406 2.09375 -4.765625 C 2.09375 -3.828125 2.414062 -3.035156 3.0625 -2.390625 C 3.71875 -1.742188 4.519531 -1.421875 5.46875 -1.421875 C 6.457031 -1.421875 7.335938 -1.796875 8.109375 -2.546875 L 9.0625 -1.484375 C 8.570312 -1.003906 8 -0.625 7.34375 -0.34375 C 6.695312 -0.0703125 6.046875 0.0625 5.390625 0.0625 C 4.003906 0.0625 2.832031 -0.394531 1.875 -1.3125 C 0.925781 -2.238281 0.453125 -3.382812 0.453125 -4.75 C 0.453125 -6.101562 0.929688 -7.238281 1.890625 -8.15625 C 2.859375 -9.070312 4.046875 -9.53125 5.453125 -9.53125 Z M 5.453125 -9.53125" transform="translate(6.075 19.597)"/></g></g></g><g fill="#85DCB8"><g><g><path d="M 4.359375 -9.546875 C 5.585938 -9.546875 6.695312 -9.222656 7.6875 -8.578125 L 7.015625 -7.171875 C 6.046875 -7.753906 5.117188 -8.046875 4.234375 -8.046875 C 3.753906 -8.046875 3.378906 -7.957031 3.109375 -7.78125 C 2.835938 -7.613281 2.703125 -7.367188 2.703125 -7.046875 C 2.703125 -6.734375 2.828125 -6.46875 3.078125 -6.25 C 3.328125 -6.03125 3.640625 -5.867188 4.015625 -5.765625 C 4.398438 -5.660156 4.8125 -5.53125 5.25 -5.375 C 5.695312 -5.21875 6.109375 -5.050781 6.484375 -4.875 C 6.867188 -4.695312 7.179688 -4.421875 7.421875 -4.046875 C 7.671875 -3.671875 7.796875 -3.21875 7.796875 -2.6875 C 7.796875 -1.851562 7.460938 -1.1875 6.796875 -0.6875 C 6.140625 -0.195312 5.285156 0.046875 4.234375 0.046875 C 3.503906 0.046875 2.800781 -0.0859375 2.125 -0.359375 C 1.445312 -0.628906 0.859375 -0.992188 0.359375 -1.453125 L 1.046875 -2.828125 C 1.523438 -2.390625 2.050781 -2.050781 2.625 -1.8125 C 3.195312 -1.570312 3.738281 -1.453125 4.25 -1.453125 C 4.8125 -1.453125 5.25 -1.550781 5.5625 -1.75 C 5.875 -1.957031 6.03125 -2.238281 6.03125 -2.59375 C 6.03125 -2.925781 5.898438 -3.203125 5.640625 -3.421875 C 5.390625 -3.640625 5.070312 -3.800781 4.6875 -3.90625 C 4.3125 -4.007812 3.898438 -4.132812 3.453125 -4.28125 C 3.015625 -4.4375 2.609375 -4.597656 2.234375 -4.765625 C 1.859375 -4.929688 1.539062 -5.195312 1.28125 -5.5625 C 1.03125 -5.9375 0.90625 -6.382812 0.90625 -6.90625 C 0.90625 -7.707031 1.21875 -8.347656 1.84375 -8.828125 C 2.476562 -9.304688 3.316406 -9.546875 4.359375 -9.546875 Z M 4.359375 -9.546875" transform="translate(15.513 19.597)"/></g></g></g></svg>