<svg xmlns="http://www.w3.org/2000/svg" width="1218" viewBox="0 0 1218 300" height="300" version="1.0"><path fill="#FFF" d="M-121.8 -30H1339.8V330H-121.8z"/><path fill="#FFF" d="M-121.8 -30H1339.8V330H-121.8z"/><path fill="#E8A87C" d="M-121.8 -30H1339.8V330H-121.8z"/><path fill="#85DCB8" d="M 1126.679688 218.628906 C 1109.152344 229.832031 1095.277344 238.839844 1065.089844 238.839844 C 1034.902344 238.839844 1021.023438 230.074219 1003.496094 218.628906 C 983.535156 205.722656 958.703125 189.894531 912.933594 189.894531 C 867.167969 189.894531 842.335938 205.722656 822.371094 218.386719 C 804.84375 229.585938 790.96875 238.597656 760.78125 238.597656 C 730.59375 238.597656 716.714844 229.832031 699.1875 218.386719 C 679.226562 205.722656 654.394531 189.894531 608.625 189.894531 C 562.855469 189.894531 538.023438 205.722656 518.0625 218.386719 C 500.535156 229.585938 486.65625 238.597656 456.46875 238.597656 C 426.28125 238.597656 412.40625 229.832031 394.878906 218.386719 C 374.914062 205.722656 350.082031 189.894531 304.316406 189.894531 C 258.546875 189.894531 233.714844 205.722656 213.753906 218.386719 C 196.226562 229.585938 182.347656 238.597656 152.160156 238.597656 C 121.972656 238.597656 108.097656 229.832031 90.570312 218.386719 C 70.605469 205.722656 45.773438 189.894531 0.0078125 189.894531 L 0.0078125 596.074219 L 1217.242188 596.074219 L 1217.242188 189.894531 C 1171.476562 189.894531 1146.644531 205.722656 1126.679688 218.628906"/></svg>